<svg class="game-begin"  viewBox="0 0 1300 409" fill="none" xmlns="http://www.w3.org/2000/svg">
    <path d="M451.201 95.1382C448.907 95.1382 447.634 93.6013 447.634 90.8282V44.0526C447.634 27.9985 440.936 0 343.019 0H328.466C291.272 0 267.927 4.22651 253.291 10.5078C252.1 11.0169 250.802 11.2231 249.512 11.1077C248.221 10.9924 246.98 10.5592 245.899 9.84702C244.818 9.13485 243.932 8.16601 243.319 7.02753C242.706 5.88905 242.387 4.61658 242.389 3.32441H149.513V19.1112C142.128 14.2833 126.553 2.57266 83.4311 2.57266H77.3186C17.6173 2.50583 0 36.3513 0 66.8724V69.9462C0 100.233 16.3278 135.098 76.7995 135.098H82.6775C117.845 135.098 134.876 126.628 143.635 119.946C144.182 119.534 144.833 119.283 145.516 119.221C146.199 119.16 146.885 119.291 147.497 119.598C148.109 119.906 148.622 120.379 148.978 120.963C149.335 121.547 149.52 122.219 149.513 122.903C149.513 129.784 146.773 136.382 141.895 141.248C137.018 146.113 130.403 148.847 123.505 148.847H121.194C117.861 148.895 114.532 148.587 111.264 147.928C85.6422 142.54 59.5092 139.946 33.3255 140.193H8.37325V141.279C8.37325 161.326 25.2202 190.143 109.924 190.143H132.683C204.408 190.143 231.755 166.855 239.693 140.644C240.018 139.579 240.568 138.596 241.307 137.761C242.045 136.926 242.955 136.258 243.974 135.804C244.993 135.35 246.098 135.118 247.214 135.126C248.33 135.134 249.432 135.381 250.444 135.85C259.906 140.193 272.399 142.833 288.408 142.833H289.949C328.801 142.833 348.679 129.468 355.93 123.07C355.93 123.07 356.047 123.07 356.064 123.07C357.89 133.093 365.024 140.21 379.241 140.21H459.105V95.1048L451.201 95.1382ZM123.924 95.0046C118.878 94.998 113.947 93.4992 109.754 90.6977C105.562 87.8962 102.296 83.9177 100.369 79.265C98.4426 74.6124 97.9419 69.4944 98.9305 64.558C99.919 59.6216 102.352 55.0883 105.923 51.5311C109.494 47.9739 114.041 45.5524 118.991 44.5728C123.941 43.5931 129.071 44.0993 133.732 46.0272C138.394 47.9551 142.378 51.2183 145.18 55.4043C147.983 59.5904 149.479 64.5113 149.479 69.5453C149.479 72.8915 148.818 76.2048 147.533 79.2959C146.249 82.3869 144.366 85.195 141.992 87.5595C139.619 89.9241 136.801 91.7987 133.701 93.0762C130.601 94.3537 127.279 95.009 123.924 95.0046ZM355.21 85.4657C355.21 96.4078 347.055 105.329 330.978 105.329C318.987 105.329 315.672 98.9638 315.672 94.1192V93.8686C315.672 88.5228 319.239 85.9669 325.619 84.1961L346.351 78.6665C347.395 78.3901 348.489 78.3567 349.548 78.5688C350.607 78.781 351.603 79.233 352.459 79.89C353.315 80.5471 354.008 81.3916 354.485 82.3583C354.962 83.325 355.21 84.3882 355.21 85.4657ZM355.512 46.0573C355.512 48.8471 354.49 50.8852 349.399 51.6536L277.188 57.5006C268.56 58.0588 260.024 59.6059 251.75 62.1113C250.685 62.4682 249.55 62.5679 248.439 62.402C247.327 62.2361 246.271 61.8094 245.357 61.1571C244.444 60.5048 243.698 59.6454 243.182 58.6496C242.666 57.6538 242.394 56.5501 242.389 55.4291C242.382 54.4919 242.562 53.5627 242.918 52.6953C243.274 51.828 243.799 51.0397 244.463 50.3762C245.126 49.7127 245.915 49.1872 246.784 48.8301C247.652 48.4729 248.583 48.2914 249.523 48.2958H258.449C280.42 48.2958 302.459 45.6396 323.308 38.7402C327.482 37.5203 331.821 36.9567 336.169 37.0697H336.672C352.229 37.0697 355.545 41.4131 355.545 45.7398L355.512 46.0573Z" fill="#FF4613" />
    <path d="M1065.49 89.5642V89.818C1065.49 109.36 1054.57 144.382 957.371 144.382H945.189C849.511 144.382 837.837 101.746 837.837 73.3217V69.2611C837.837 41.0906 849.257 0.230621 944.936 0.230621H957.117C1056.35 0.230621 1065.74 43.3747 1065.74 75.6058V80.9354H918.542C919.811 92.8634 927.932 104.538 952.549 104.538C980.974 104.538 984.019 92.6096 984.78 89.5642H1065.49ZM919.049 53.2724H984.273C982.496 43.1209 974.375 35.761 951.788 35.761C928.186 35.761 921.08 43.3747 919.049 53.2724Z" fill="#1C1C1C" />
    <path d="M556.082 140.576H474.108V4.03745H555.828V29.1625C561.919 23.0716 583.745 0.992004 626.128 0.992004H627.397C661.658 0.992004 678.408 15.7117 685.768 30.4315C696.681 19.5186 721.045 0.992004 760.636 0.992004H761.904C813.931 0.992004 825.605 34.2383 825.605 51.4959V140.576H743.632V77.1285C743.632 62.155 737.795 49.2118 718.507 49.2118C699.473 49.2118 690.844 62.4088 690.844 77.6361V140.576H608.87V77.1285C608.87 62.155 603.033 49.2118 583.745 49.2118C564.711 49.2118 556.082 62.4088 556.082 77.6361V140.576Z" fill="#1C1C1C" />
    <path d="M1075.33 359.159V222.62H1157.05V247.492C1163.14 241.401 1185.73 219.575 1230.39 219.575H1231.92C1286.73 219.575 1299.17 252.567 1299.17 270.079V359.159H1217.2V296.219C1217.2 280.738 1210.34 267.795 1188.01 267.795C1166.69 267.795 1157.3 280.992 1157.3 296.727V359.159H1075.33Z" fill="#1C1C1C" />
    <path d="M1058.66 170.34V213.23H976.688V170.34H1058.66ZM1058.66 222.62V359.159H976.688V222.62H1058.66Z" fill="#1C1C1C" />
    <path d="M842.498 262.719H841.229C816.865 262.719 808.998 275.155 808.998 287.083V288.098C808.998 301.041 817.119 314.238 841.229 314.238H842.498C867.115 314.238 877.775 301.041 877.775 288.098V287.337C877.775 275.155 867.115 262.719 842.498 262.719ZM854.934 408.901H833.615C749.104 408.901 734.892 377.431 734.892 360.174V359.159H817.119C817.627 362.204 820.926 369.056 843.767 369.056H844.528C868.892 369.056 878.282 356.367 878.282 339.109V333.526C872.191 339.617 856.202 353.829 811.79 353.829H806.714C745.297 353.829 726.517 320.329 726.517 288.859V285.052C726.517 253.836 745.043 221.098 804.937 221.098H810.774C854.68 221.098 870.668 233.787 878.028 239.117V222.62H960.256V338.602C960.256 369.056 941.983 408.901 854.934 408.901Z" fill="#1C1C1C" />
    <path d="M713.392 290.534C713.392 258.556 705.987 213.786 598.544 213.786H587.304C532.577 213.786 504.25 225.704 489.676 240.745C488.911 241.553 487.982 242.188 486.952 242.607C485.922 243.025 484.814 243.218 483.703 243.172C482.592 243.126 481.504 242.842 480.512 242.339C479.52 241.837 478.646 241.127 477.95 240.258C466.693 226.409 446.943 216.606 413.859 216.606H407.159C368.631 216.606 347.943 231.445 343.855 235.541V164.953H251.086V355.214H320.839C325.537 355.217 330.108 353.689 333.864 350.861C337.62 348.033 340.356 344.058 341.661 339.535C341.669 339.525 341.679 339.516 341.69 339.51C341.702 339.504 341.715 339.501 341.728 339.501C341.741 339.501 341.754 339.504 341.765 339.51C341.777 339.516 341.787 339.525 341.795 339.535C348.763 343.664 367.642 356.322 402.954 356.322H409.839C445.017 356.322 465.923 345.897 477.766 331.242C478.475 330.386 479.357 329.69 480.355 329.203C481.353 328.715 482.443 328.447 483.553 328.415C484.663 328.383 485.767 328.589 486.791 329.019C487.815 329.448 488.736 330.092 489.492 330.907C503.965 346.585 532.208 359.159 586.985 359.159H598.477C702.604 359.159 713.324 323.084 713.324 303.141V302.604H674.662C652.65 302.833 630.837 306.807 610.152 314.355C605.083 315.978 599.776 316.732 594.456 316.587C579.179 316.587 571.876 310.762 568.559 303.813C568.069 302.774 567.85 301.628 567.922 300.482C567.994 299.336 568.354 298.226 568.97 297.257C569.586 296.288 570.436 295.492 571.442 294.941C572.448 294.391 573.577 294.105 574.723 294.11H709.874C710.82 294.11 711.728 293.733 712.397 293.063C713.066 292.392 713.442 291.483 713.442 290.534H713.392ZM366.151 309.604C361.428 308.975 356.975 307.034 353.296 304C349.616 300.966 346.857 296.961 345.331 292.438C343.805 287.915 343.573 283.054 344.66 278.405C345.748 273.757 348.112 269.506 351.485 266.133C354.858 262.761 359.105 260.402 363.747 259.323C368.388 258.244 373.239 258.488 377.749 260.028C382.259 261.568 386.249 264.342 389.268 268.036C392.286 271.731 394.213 276.198 394.83 280.932C395.323 284.821 394.92 288.772 393.652 292.48C392.384 296.188 390.285 299.556 387.516 302.325C384.747 305.094 381.381 307.189 377.677 308.451C373.974 309.713 370.031 310.108 366.151 309.604ZM573.869 266.479C572.878 266.528 571.896 266.282 571.044 265.772C570.193 265.262 569.511 264.511 569.085 263.614C568.659 262.716 568.507 261.712 568.649 260.729C568.791 259.745 569.22 258.825 569.882 258.086C573.45 253.973 580.335 251.069 593.887 251.069C606.718 251.069 613.804 253.805 617.607 257.935C618.295 258.663 618.751 259.581 618.915 260.57C619.08 261.56 618.945 262.576 618.53 263.489C618.114 264.402 617.436 265.169 616.582 265.693C615.728 266.217 614.737 266.473 613.737 266.429L573.869 266.479Z" fill="#FF4613" />
</svg>