<svg viewBox="0 0 25 19" fill="none" xmlns="http://www.w3.org/2000/svg">
    <g id="Group">
        <path id="Vector"
              d="M24.4862 3.48912C24.1978 2.41819 23.3534 1.5738 22.2825 1.28547C20.326 0.75 12.4999 0.75 12.4999 0.75C12.4999 0.75 4.67388 0.75 2.71737 1.26487C1.66703 1.5532 0.802041 2.41819 0.513713 3.48912C-0.00115967 5.44564 -0.00115967 9.50283 -0.00115967 9.50283C-0.00115967 9.50283 -0.00115967 13.5806 0.513713 15.5165C0.802041 16.5875 1.64643 17.4319 2.71737 17.7202C4.69448 18.2557 12.4999 18.2557 12.4999 18.2557C12.4999 18.2557 20.326 18.2557 22.2825 17.7408C23.3534 17.4525 24.1978 16.6081 24.4862 15.5371C25.001 13.5806 25.001 9.52342 25.001 9.52342C25.001 9.52342 25.0216 5.44564 24.4862 3.48912Z"
              fill="currentColor"/>
        <path id="Vector_2" d="M10.008 13.2511L16.516 9.50282L10.008 5.75455V13.2511Z" fill="#1c1c1c"/>
    </g>
</svg>