<svg class="logo" viewBox="0 0 190 50" fill="none" xmlns="http://www.w3.org/2000/svg">
    <path d="M92.2689 30.0137C91.7997 30.0137 91.5394 29.694 91.5394 29.1173V19.3885C91.5394 16.0494 90.1696 10.226 70.146 10.226H67.17C59.564 10.226 54.7901 11.1051 51.797 12.4115C51.5535 12.5174 51.288 12.5603 51.0241 12.5363C50.7603 12.5123 50.5065 12.4222 50.2854 12.2741C50.0644 12.126 49.8831 11.9244 49.7578 11.6877C49.6325 11.4509 49.5671 11.1862 49.5676 10.9174H30.5748V14.2009C29.0645 13.1968 25.8797 10.7611 17.0613 10.7611H15.8114C3.60267 10.7472 0 17.7867 0 24.1347V24.774C0 31.0734 3.33898 38.3249 15.7052 38.3249H16.9072C24.0989 38.3249 27.5817 36.5633 29.3727 35.1734C29.4846 35.0877 29.6179 35.0355 29.7575 35.0227C29.897 35.0099 30.0374 35.0371 30.1625 35.1011C30.2877 35.1652 30.3926 35.2635 30.4655 35.385C30.5384 35.5065 30.5762 35.6462 30.5748 35.7884C30.5748 37.2195 30.0145 38.592 29.0171 39.604C28.0197 40.6159 26.6669 41.1844 25.2564 41.1844H24.7838C24.1021 41.1946 23.4213 41.1305 22.753 40.9933C17.5135 39.8726 12.1694 39.3332 6.81494 39.3846H1.7123V39.6105C1.7123 43.7799 5.15744 49.7736 22.479 49.7736H27.1331C41.8006 49.7736 47.393 44.93 49.0162 39.4784C49.0827 39.2569 49.1952 39.0523 49.3462 38.8787C49.4973 38.705 49.6833 38.5662 49.8916 38.4717C50.1 38.3772 50.326 38.3291 50.5542 38.3308C50.7825 38.3324 51.0078 38.3837 51.2148 38.4812C53.1497 39.3846 55.7045 39.9336 58.9784 39.9336H59.2934C67.2385 39.9336 71.3035 37.1539 72.7863 35.8232C72.7863 35.8232 72.8103 35.8232 72.8137 35.8232C73.187 37.9079 74.6459 39.3881 77.5534 39.3881H93.8853V30.0067L92.2689 30.0137ZM25.342 29.9859C24.3101 29.9845 23.3017 29.6728 22.4443 29.0901C21.5869 28.5074 20.9191 27.6799 20.5251 26.7122C20.1311 25.7445 20.0287 24.6801 20.2309 23.6533C20.433 22.6266 20.9306 21.6838 21.6608 20.9439C22.391 20.204 23.321 19.7004 24.3332 19.4966C25.3454 19.2929 26.3944 19.3982 27.3477 19.7991C28.3009 20.2001 29.1157 20.8788 29.6888 21.7495C30.262 22.6201 30.5679 23.6436 30.5679 24.6906C30.5679 25.3866 30.4327 26.0758 30.17 26.7187C29.9073 27.3616 29.5222 27.9456 29.0369 28.4374C28.5515 28.9292 27.9754 29.3191 27.3414 29.5848C26.7074 29.8505 26.028 29.9868 25.342 29.9859ZM72.6391 28.0019C72.6391 30.2778 70.9713 32.1332 67.6837 32.1332C65.2317 32.1332 64.5536 30.8094 64.5536 29.8017V29.7496C64.5536 28.6378 65.2831 28.1062 66.5878 27.7378L70.8275 26.5878C71.041 26.5303 71.2646 26.5233 71.4812 26.5674C71.6977 26.6116 71.9014 26.7056 72.0765 26.8422C72.2515 26.9789 72.3933 27.1545 72.4909 27.3556C72.5884 27.5567 72.6391 27.7778 72.6391 28.0019ZM72.7007 19.8054C72.7007 20.3857 72.4918 20.8096 71.4507 20.9694L56.6839 22.1855C54.9194 22.3016 53.1739 22.6234 51.4819 23.1445C51.2641 23.2187 51.032 23.2394 50.8047 23.2049C50.5775 23.1704 50.3615 23.0817 50.1746 22.946C49.9877 22.8103 49.8353 22.6316 49.7297 22.4245C49.6242 22.2174 49.5686 21.9878 49.5676 21.7546C49.5662 21.5597 49.603 21.3664 49.6758 21.186C49.7486 21.0056 49.8559 20.8417 49.9916 20.7037C50.1273 20.5657 50.2887 20.4564 50.4663 20.3821C50.6439 20.3078 50.8343 20.2701 51.0265 20.271H52.8518C57.3448 20.271 61.8516 19.7185 66.1152 18.2835C66.9688 18.0298 67.8562 17.9126 68.7453 17.9361H68.8481C72.0295 17.9361 72.7076 18.8395 72.7076 19.7394L72.7007 19.8054Z"
          fill="currentColor"/>
    <path d="M189.99 25.9933C189.99 19.3742 188.476 10.1075 166.51 10.1075H164.213C153.024 10.1075 147.233 12.5745 144.254 15.6877C144.098 15.855 143.908 15.9864 143.697 16.073C143.486 16.1596 143.26 16.1995 143.033 16.19C142.806 16.1804 142.583 16.1217 142.38 16.0177C142.178 15.9136 141.999 15.7668 141.857 15.5869C139.556 12.7204 135.518 10.6913 128.754 10.6913H127.384C119.508 10.6913 115.279 13.7628 114.443 14.6106V0H95.4775V39.3808H109.738C110.698 39.3814 111.633 39.0652 112.4 38.4798C113.168 37.8945 113.728 37.0717 113.994 36.1355C113.996 36.1334 113.998 36.1316 114 36.1304C114.003 36.1292 114.005 36.1286 114.008 36.1286C114.011 36.1286 114.013 36.1292 114.016 36.1304C114.018 36.1316 114.02 36.1334 114.022 36.1355C115.446 36.9903 119.306 39.6101 126.525 39.6101H127.932C135.124 39.6101 139.398 37.4524 141.819 34.4191C141.964 34.2418 142.144 34.0979 142.348 33.997C142.552 33.896 142.775 33.8404 143.002 33.8339C143.229 33.8273 143.455 33.8699 143.664 33.9588C143.874 34.0478 144.062 34.181 144.216 34.3496C147.175 37.5949 152.949 40.1973 164.148 40.1973H166.497C187.784 40.1973 189.976 32.7305 189.976 28.6027V28.4915H182.072C177.572 28.5389 173.112 29.3613 168.884 30.9237C167.847 31.2596 166.763 31.4158 165.675 31.3858C162.552 31.3858 161.059 30.1801 160.38 28.7417C160.28 28.5267 160.236 28.2895 160.25 28.0522C160.265 27.815 160.339 27.5853 160.465 27.3848C160.59 27.1842 160.764 27.0193 160.97 26.9054C161.176 26.7915 161.406 26.7323 161.641 26.7334H189.27C189.464 26.7334 189.649 26.6554 189.786 26.5166C189.923 26.3778 190 26.1895 190 25.9933H189.99ZM119.001 29.9404C118.035 29.8101 117.125 29.4083 116.373 28.7804C115.621 28.1525 115.057 27.3236 114.745 26.3873C114.433 25.4511 114.385 24.445 114.608 23.4827C114.83 22.5205 115.313 21.6406 116.003 20.9426C116.692 20.2446 117.561 19.7563 118.51 19.533C119.458 19.3097 120.45 19.3603 121.372 19.679C122.294 19.9977 123.11 20.5719 123.727 21.3366C124.344 22.1012 124.738 23.0258 124.864 24.0058C124.965 24.8107 124.882 25.6284 124.623 26.396C124.364 27.1635 123.935 27.8606 123.369 28.4337C122.803 29.0068 122.115 29.4405 121.357 29.7017C120.6 29.9629 119.794 30.0446 119.001 29.9404ZM161.466 21.0142C161.264 21.0243 161.063 20.9734 160.889 20.8678C160.715 20.7623 160.575 20.6068 160.488 20.4211C160.401 20.2353 160.37 20.0276 160.399 19.824C160.428 19.6204 160.516 19.43 160.651 19.2769C161.38 18.4256 162.788 17.8245 165.558 17.8245C168.182 17.8245 169.63 18.3909 170.408 19.2456C170.548 19.3964 170.642 19.5864 170.675 19.7912C170.709 19.9961 170.681 20.2064 170.596 20.3953C170.511 20.5842 170.373 20.743 170.198 20.8515C170.024 20.9599 169.821 21.0129 169.617 21.0038L161.466 21.0142Z"
          fill="currentColor"/>
    <path d="M84.422 48.0696V47.9404L82.8265 48.1912C82.3996 48.2596 82.2198 48.3356 82.2198 48.5713V48.5789C82.2198 48.7993 82.3846 49.0425 82.9539 49.0425C83.8452 49.0425 84.422 48.5561 84.422 48.0696ZM84.4669 49.3238C84.2946 49.5442 83.7853 49.9622 82.6018 49.9622H82.5044C81.1487 49.9622 80.6318 49.3238 80.6318 48.6245V48.5713C80.6318 47.8187 81.1187 47.4615 82.3247 47.3475L84.1673 47.1727C84.3546 47.1499 84.422 47.089 84.422 46.9598C84.422 46.8078 84.3546 46.6254 83.3733 46.6254H83.3359C82.3397 46.6254 82.3022 46.9446 82.2797 47.0814H80.7292V47.0662C80.7292 46.5266 80.8865 45.6829 83.1336 45.6829H83.5456C85.8826 45.6829 86.0324 46.4126 86.0324 47.0054V48.5713C86.0324 48.6929 86.0699 48.7765 86.2422 48.7765H86.4594V49.8862H85.1036C84.7815 49.8862 84.5268 49.7114 84.4669 49.3238Z"
          fill="currentColor"/>
    <path d="M80.1567 44.2311V45.4016H78.4863V44.2311H80.1567ZM80.1567 45.7969V49.8862H78.4863V45.7969H80.1567Z"
          fill="currentColor"/>
    <path d="M76.1063 47.8492V47.8188C76.1063 47.2867 75.567 46.7698 74.5782 46.7698H74.5408C73.4921 46.7698 73.2 47.2867 73.2 47.8188V47.8492C73.2 48.3432 73.5745 48.9057 74.5558 48.9057H74.5932C75.582 48.9057 76.1063 48.3736 76.1063 47.8492ZM76.1063 44.2311H77.7841V49.8862H76.1213V49.263C76.0089 49.4226 75.4247 49.9851 74.1288 49.9851H74.0314C72.2412 49.9851 71.4922 49.0273 71.4922 47.8796V47.7351C71.4922 46.6406 72.1588 45.6981 73.964 45.6981H74.0839C75.3423 45.6981 75.919 46.1769 76.1063 46.3441V44.2311Z"
          fill="currentColor"/>
    <path d="M68.1378 46.633H68.1303C67.2914 46.633 66.9168 46.8914 66.7895 47.3247H69.486C69.3737 46.8914 68.9842 46.633 68.1378 46.633ZM71.1489 48.442V48.4496C71.1489 49.0045 70.7894 50.0003 68.385 50.0003H67.958C65.8083 50.0003 65.1191 48.9817 65.1191 47.91V47.7427C65.1191 46.6938 65.7334 45.6829 67.9131 45.6829H68.37C70.7369 45.6829 71.1714 46.8914 71.1714 47.8872V48.1684H66.7595C66.8569 48.6473 67.2614 48.9665 68.1827 48.9665H68.1902C69.2988 48.9665 69.4786 48.5409 69.501 48.442H71.1489Z"
          fill="currentColor"/>
    <path d="M57.102 49.8862H55.4316V45.7969H57.087V46.5038C57.2743 46.3137 57.8361 45.7056 59.0046 45.7056H59.057C59.9184 45.7056 60.4203 46.0629 60.6674 46.519C60.9671 46.2149 61.6187 45.7056 62.6973 45.7056H62.7573C64.098 45.7056 64.6149 46.5342 64.6149 47.3019V49.8862H62.9295V47.8643C62.9295 47.2639 62.6749 46.8458 62.0157 46.8458C61.2966 46.8458 60.8622 47.3171 60.8622 47.9556V49.8862H59.1768V47.8643C59.1768 47.2639 58.9147 46.8458 58.2555 46.8458C57.5364 46.8458 57.102 47.3171 57.102 47.9556V49.8862Z"
          fill="currentColor"/>
</svg>